<?xml version="1.0" encoding="iso-8859-1"?>
<!-- Generator: Adobe Illustrator 19.0.0, SVG Export Plug-In . SVG Version: 6.00 Build 0)  -->
<svg version="1.1" id="Layer_1" xmlns="http://www.w3.org/2000/svg" xmlns:xlink="http://www.w3.org/1999/xlink" x="0px" y="0px"
	 viewBox="0 0 512 512" style="enable-background:new 0 0 512 512;" xml:space="preserve">
<path style="fill:#7E8488;" d="M497.651,91.414c4.096,10.994,6.251,22.851,6.251,35.245s-2.156,24.251-6.251,35.245
	c-5.174,14.119-13.365,26.623-23.82,37.078c-10.455,10.455-22.957,18.646-37.078,23.82c-10.993,4.096-22.851,6.251-35.245,6.251
	c-56.586,0-102.394-45.808-102.394-102.394S344.921,24.265,401.508,24.265c12.395,0,24.251,2.156,35.245,6.251
	C464.885,40.865,487.304,63.283,497.651,91.414z"/>
<path style="fill:#707679;" d="M363.784,126.66c0-45.256,29.335-83.545,70.018-97.093c-10.164-3.424-20.986-5.301-32.293-5.301
	c-56.586,0-102.394,45.808-102.394,102.394s45.808,102.394,102.394,102.394c11.305,0,22.128-1.877,32.292-5.301
	C393.119,210.206,363.784,171.916,363.784,126.66z"/>
<path style="fill:#7E8488;" d="M110.492,282.947c56.586,0,102.394,45.808,102.394,102.394s-45.808,102.394-102.394,102.394
	c-12.395,0-24.251-2.155-35.245-6.251c-28.131-10.348-50.551-32.766-60.898-60.898c-4.095-10.994-6.251-22.851-6.251-35.245
	c0-12.395,2.156-24.251,6.251-35.245c5.174-14.12,13.365-26.623,23.82-37.078c10.455-10.455,22.958-18.646,37.078-23.82
	C86.241,285.102,98.097,282.947,110.492,282.947z"/>
<path style="fill:#757A7E;" d="M148.174,385.341c0,45.257-29.335,83.545-70.018,97.093c10.164,3.424,20.987,5.301,32.293,5.301
	c56.586,0,102.394-45.808,102.394-102.394S167.036,282.947,110.45,282.947c-11.305,0-22.128,1.876-32.292,5.301
	C118.839,301.795,148.174,340.085,148.174,385.341z"/>
<path style="fill:#FFD311;" d="M401.508,282.947c56.371,0,102.394,46.024,102.394,102.394c0,28.239-11.533,53.784-30.071,72.323
	c-18.539,18.539-44.084,30.071-72.323,30.071H110.492c56.586,0,102.394-45.808,102.394-102.394s-45.808-102.394-102.394-102.394
	H401.508z"/>
<path style="fill:#AFB6BB;" d="M110.492,24.265h291.016c-56.586,0-102.394,45.808-102.394,102.394s45.808,102.394,102.394,102.394
	H110.492c-56.371,0-102.394-46.024-102.394-102.394c0-28.239,11.533-53.784,30.071-72.323
	C56.708,35.799,82.253,24.265,110.492,24.265z"/>
<path style="fill:#A1A8AD;" d="M299.114,126.66H8.098c0,56.371,46.024,102.394,102.394,102.394h291.016
	C344.922,229.055,299.114,183.246,299.114,126.66z"/>
<path style="fill:#FBC119;" d="M110.492,487.736h291.016c28.239,0,53.784-11.533,72.323-30.071
	c18.538-18.538,30.071-44.084,30.071-72.323H212.886C212.886,441.928,167.079,487.736,110.492,487.736z"/>
<path d="M110.492,237.153h291.016c13.221,0,26.03-2.275,38.005-6.736c0.009-0.003,0.017-0.006,0.026-0.01l0,0
	c0.025-0.01,0.05-0.019,0.075-0.029c30.617-11.136,54.543-35.08,65.626-65.646c0.003-0.008,0.004-0.014,0.008-0.022
	c0.002-0.006,0.005-0.013,0.008-0.019h-0.001c4.476-12.03,6.747-24.825,6.747-38.031c0-13.209-2.271-26.008-6.749-38.041
	c-11.125-30.65-35.083-54.6-65.671-65.69c-0.004-0.002-0.01-0.003-0.014-0.005c-0.005-0.002-0.012-0.004-0.017-0.006l0,0
	c-12.032-4.479-24.831-6.749-38.04-6.749H110.492c-29.41,0-57.128,11.521-78.05,32.444C11.521,69.532,0,97.251,0,126.66
	C0,187.586,49.566,237.153,110.492,237.153z M433.974,38.123c26.055,9.589,46.494,30.03,56.077,56.087l0,0l0.012,0.031
	c3.81,10.228,5.742,21.135,5.742,32.419c0,11.281-1.93,22.183-5.762,32.474c-4.68,12.766-12.061,24.247-21.937,34.122
	c-9.84,9.84-21.274,17.202-33.984,21.884c-0.065,0.024-0.13,0.05-0.195,0.073c-10.227,3.81-21.134,5.742-32.418,5.742
	c-51.996,0-94.297-42.301-94.297-94.297s42.301-94.297,94.297-94.297C412.785,32.363,423.686,34.294,433.974,38.123z M43.895,60.064
	c17.862-17.862,41.514-27.699,66.597-27.699h233.483c-31.737,19.435-52.959,54.434-52.959,94.297
	c0,39.864,21.222,74.861,52.96,94.297H110.493c-51.997,0-94.298-42.302-94.298-94.298C16.195,101.577,26.032,77.926,43.895,60.064z"
	/>
<path d="M401.508,274.849H110.492c-13.221,0-26.03,2.275-38.006,6.736c-0.009,0.003-0.017,0.007-0.026,0.01l0,0
	c-0.025,0.01-0.05,0.019-0.076,0.029C41.768,292.76,17.843,316.704,6.76,347.27c-0.002,0.007-0.004,0.014-0.008,0.022
	c-0.002,0.007-0.005,0.013-0.008,0.019h0.001C2.271,359.34,0,372.136,0,385.341c0,13.208,2.271,26.006,6.748,38.037
	c11.125,30.65,35.084,54.603,65.672,65.694c0.005,0.002,0.01,0.003,0.014,0.005c0.005,0.002,0.012,0.004,0.017,0.007v-0.001
	c12.033,4.479,24.831,6.749,38.041,6.749h291.016c29.41,0,57.127-11.521,78.048-32.444C500.478,442.468,512,414.749,512,385.34
	C512,324.416,462.434,274.849,401.508,274.849z M78.026,473.878c-26.055-9.589-46.494-30.03-56.077-56.088l0,0l-0.012-0.031
	c-3.81-10.227-5.742-21.134-5.742-32.418c0-11.281,1.93-22.183,5.762-32.474c4.68-12.766,12.061-24.247,21.937-34.124
	c9.84-9.84,21.274-17.202,33.984-21.884c0.066-0.024,0.13-0.05,0.195-0.073c10.228-3.81,21.135-5.742,32.419-5.742
	c51.996,0,94.297,42.301,94.297,94.297s-42.301,94.297-94.297,94.297C99.216,479.638,88.315,477.709,78.026,473.878z
	 M468.105,451.939c-17.862,17.862-41.514,27.699-66.597,27.699H168.025c31.737-19.435,52.959-54.434,52.959-94.297
	c0-39.864-21.222-74.862-52.959-94.297h233.483c51.996,0,94.297,42.301,94.297,94.297
	C495.805,410.425,485.968,434.075,468.105,451.939z"/>
<g>
	<path style="fill:#FFFFFF;" d="M401.508,188.65v-16.195c25.251,0,45.794-20.543,45.794-45.795
		c0-25.251-20.543-45.794-45.794-45.794c-25.252,0-45.794,20.543-45.794,45.794h-16.195c0-34.181,27.808-61.989,61.989-61.989
		s61.989,27.808,61.989,61.989C463.498,160.842,435.69,188.65,401.508,188.65z"/>
	<path style="fill:#FFFFFF;" d="M110.492,447.33c-34.182,0-61.989-27.808-61.989-61.989c0-34.182,27.808-61.99,61.989-61.99
		s61.989,27.808,61.989,61.99h-16.195c0-25.252-20.543-45.795-45.794-45.795c-25.252,0-45.794,20.543-45.794,45.795
		c0,25.251,20.543,45.794,45.794,45.794C110.492,431.135,110.492,447.33,110.492,447.33z"/>
</g>
<g>
</g>
<g>
</g>
<g>
</g>
<g>
</g>
<g>
</g>
<g>
</g>
<g>
</g>
<g>
</g>
<g>
</g>
<g>
</g>
<g>
</g>
<g>
</g>
<g>
</g>
<g>
</g>
<g>
</g>
</svg>
